<svg xmlns="http://www.w3.org/2000/svg" width="16" height="16" fill="none"><path fill="#1D1C1B" d="M2.921 1.749c-.56 0-1.016.455-1.016 1.016v1.354c0 .561.455 1.016 1.016 1.016h1.355c.56 0 1.016-.455 1.016-1.016V2.765c0-.561-.455-1.016-1.016-1.016H2.92Z"/><path fill="#1D1C1B" fill-rule="evenodd" d="M6.307 2.765c0-.561.455-1.016 1.016-1.016h5.756c.562 0 1.016.455 1.016 1.016v1.354c0 .561-.454 1.016-1.016 1.016H7.323A1.016 1.016 0 0 1 6.307 4.12V2.765Zm1.016-.339h5.756a.34.34 0 0 1 .34.339v1.354a.339.339 0 0 1-.34.339H7.323a.339.339 0 0 1-.339-.339V2.765a.34.34 0 0 1 .339-.339ZM2.921 6.151c-.56 0-1.016.455-1.016 1.016v1.355c0 .56.455 1.015 1.016 1.015H13.08c.56 0 1.016-.454 1.016-1.015V7.167c0-.561-.455-1.016-1.016-1.016H2.92Zm10.159.677H2.92a.339.339 0 0 0-.338.339v1.355c0 .187.151.338.338.338h10.16a.339.339 0 0 0 .338-.338V7.167a.339.339 0 0 0-.338-.339ZM1.905 11.637c0-.561.455-1.016 1.016-1.016h6.095c.561 0 1.016.455 1.016 1.016v1.287c0 .56-.455 1.015-1.016 1.015H2.921a1.016 1.016 0 0 1-1.016-1.015v-1.287Zm1.016-.339h6.095a.34.34 0 0 1 .339.339v1.287a.339.339 0 0 1-.339.338H2.921a.339.339 0 0 1-.338-.338v-1.287c0-.187.151-.339.338-.339Z" clip-rule="evenodd"/></svg>