<svg xmlns="http://www.w3.org/2000/svg" width="16" height="16" fill="none"><path fill="#1D1C1B" fill-rule="evenodd" d="M3.033 1.906c-.56 0-1.015.454-1.015 1.015v1.355c0 .56.454 1.016 1.015 1.016h1.355c.561 0 1.016-.455 1.016-1.016V2.92c0-.56-.455-1.015-1.016-1.015H3.033Zm1.355.677H3.033a.339.339 0 0 0-.338.338v1.355c0 .187.151.338.338.338h1.355a.339.339 0 0 0 .339-.338V2.92a.339.339 0 0 0-.34-.338Zm7.45-.677c-.561 0-1.016.454-1.016 1.015v1.355c0 .56.455 1.016 1.016 1.016h1.354c.561 0 1.016-.455 1.016-1.016V2.92c0-.56-.455-1.015-1.016-1.015h-1.354Zm1.354.677h-1.354a.339.339 0 0 0-.339.338v1.355c0 .187.152.338.339.338h1.354a.339.339 0 0 0 .339-.338V2.92a.339.339 0 0 0-.339-.338Zm-2.37 9.143c0-.562.455-1.016 1.016-1.016h1.354c.561 0 1.016.454 1.016 1.015v1.355c0 .561-.455 1.016-1.016 1.016h-1.354a1.016 1.016 0 0 1-1.016-1.016v-1.354Zm1.016-.34h1.354a.34.34 0 0 1 .339.34v1.354a.339.339 0 0 1-.339.339h-1.354a.339.339 0 0 1-.339-.339v-1.354a.34.34 0 0 1 .339-.34Zm-8.805-.676c-.56 0-1.015.454-1.015 1.015v1.355c0 .561.454 1.016 1.015 1.016h1.355c.561 0 1.016-.455 1.016-1.016v-1.354c0-.562-.455-1.016-1.016-1.016H3.033Zm1.355.677H3.033a.339.339 0 0 0-.338.338v1.355c0 .187.151.339.338.339h1.355a.339.339 0 0 0 .339-.339v-1.354a.339.339 0 0 0-.34-.34Z" clip-rule="evenodd"/><path fill="#1D1C1B" d="M7.165 5.63c-.786 0-1.423.637-1.423 1.423v1.896c0 .785.637 1.422 1.423 1.422H9.06c.785 0 1.422-.637 1.422-1.422V7.053c0-.786-.637-1.423-1.422-1.423H7.165Z"/></svg>