<svg xmlns="http://www.w3.org/2000/svg" width="16" height="17" fill="none"><path fill="#F4F3F3" fill-rule="evenodd" d="M3.033 2.106c-.56 0-1.015.455-1.015 1.016v1.354c0 .561.454 1.016 1.015 1.016h1.355c.561 0 1.016-.455 1.016-1.016V3.122c0-.561-.455-1.016-1.016-1.016H3.033Zm1.355.677H3.033a.339.339 0 0 0-.338.339v1.354c0 .187.151.339.338.339h1.355a.339.339 0 0 0 .339-.339V3.122a.339.339 0 0 0-.34-.339Zm7.45-.677c-.561 0-1.016.455-1.016 1.016v1.354c0 .561.455 1.016 1.016 1.016h1.354c.561 0 1.016-.455 1.016-1.016V3.122c0-.561-.455-1.016-1.016-1.016h-1.354Zm1.354.677h-1.354a.339.339 0 0 0-.339.339v1.354a.34.34 0 0 0 .339.339h1.354a.339.339 0 0 0 .339-.339V3.122a.339.339 0 0 0-.339-.339Zm-2.37 9.143c0-.561.455-1.016 1.016-1.016h1.354c.561 0 1.016.455 1.016 1.016v1.354c0 .561-.455 1.016-1.016 1.016h-1.354a1.016 1.016 0 0 1-1.016-1.016v-1.354Zm1.016-.339h1.354a.34.34 0 0 1 .339.339v1.354a.339.339 0 0 1-.339.339h-1.354a.339.339 0 0 1-.339-.339v-1.354a.34.34 0 0 1 .339-.339Zm-8.805-.677c-.56 0-1.015.455-1.015 1.016v1.354c0 .561.454 1.016 1.015 1.016h1.355c.561 0 1.016-.455 1.016-1.016v-1.354c0-.561-.455-1.016-1.016-1.016H3.033Zm1.355.677H3.033a.339.339 0 0 0-.338.339v1.354c0 .187.151.339.338.339h1.355a.339.339 0 0 0 .339-.339v-1.354a.339.339 0 0 0-.34-.339Z" clip-rule="evenodd"/><path fill="#F4F3F3" d="M7.165 5.83c-.786 0-1.423.637-1.423 1.423v1.896c0 .785.637 1.422 1.423 1.422H9.06c.785 0 1.422-.637 1.422-1.422V7.253c0-.786-.637-1.422-1.422-1.422H7.165Z"/></svg>