<svg xmlns="http://www.w3.org/2000/svg" width="16" height="16" fill="none"><path fill="#F4F3F3" d="M10.747 10.101c.272-.42.9-.42 1.172 0l.052.097.362.801.802.363a.7.7 0 0 1 0 1.276l-.802.362-.362.802a.7.7 0 0 1-1.276 0L10.332 13l-.8-.362a.7.7 0 0 1 0-1.276l.8-.363.363-.8.052-.098ZM4.756 5.136c.354-.784 1.468-.784 1.823 0l.815 1.804 1.803.815c.785.354.785 1.469 0 1.823l-1.803.815-.815 1.803c-.354.785-1.469.785-1.823 0l-.815-1.803-1.804-.815c-.784-.354-.784-1.469 0-1.823L3.94 6.94l.815-1.804Zm.096 2.216c-.1.221-.278.4-.5.5l-1.803.814 1.803.815c.222.1.4.278.5.5l.815 1.804.815-1.805a1 1 0 0 1 .5-.499l1.804-.815-1.805-.814a1.001 1.001 0 0 1-.499-.5l-.815-1.804-.815 1.804Zm5.896-5.25a.7.7 0 0 1 1.17 0l.054.096.568 1.26 1.263.57a.7.7 0 0 1 0 1.277l-1.262.569-.57 1.262a.7.7 0 0 1-1.276 0l-.57-1.263-1.26-.568a.7.7 0 0 1 0-1.277l1.26-.57.57-1.26.053-.096Zm.243 1.872a.704.704 0 0 1-.35.35l-.76.343.76.343a.702.702 0 0 1 .288.239l.062.11.343.76.343-.76.062-.11a.7.7 0 0 1 .287-.24l.76-.342-.76-.343a.7.7 0 0 1-.35-.35l-.342-.76-.343.76Z"/></svg>