<svg xmlns="http://www.w3.org/2000/svg" width="24" height="24" fill="none"><path fill="#1D1C1B" d="M16.12 15.152a1.053 1.053 0 0 1 1.758 0l.078.146.544 1.2 1.202.546c.823.372.823 1.54 0 1.913l-1.203.543-.543 1.203c-.373.823-1.541.823-1.913 0l-.545-1.203-1.202-.543c-.823-.372-.823-1.541 0-1.913l1.202-.545.545-1.201.078-.146ZM7.135 7.704c.532-1.176 2.203-1.176 2.735 0l1.221 2.707 2.706 1.222c1.177.531 1.177 2.203 0 2.735l-2.706 1.221-1.221 2.706c-.532 1.176-2.203 1.176-2.735 0l-1.221-2.706-2.707-1.221c-1.177-.532-1.177-2.204 0-2.736l2.707-1.221 1.221-2.707Zm.145 3.324c-.15.333-.417.6-.75.75L3.824 13l2.705 1.222c.332.15.6.417.75.75L8.5 17.677l1.224-2.707a1.5 1.5 0 0 1 .748-.749L13.18 13l-2.707-1.222a1.5 1.5 0 0 1-.748-.75L8.5 8.322l-1.22 2.706Zm8.843-7.876a1.052 1.052 0 0 1 1.756 0l.08.146.852 1.89 1.894.855c.823.372.823 1.542 0 1.914l-1.893.854-.854 1.893c-.372.823-1.543.823-1.915 0l-.855-1.895-1.89-.852c-.823-.372-.823-1.542 0-1.914l1.89-.856.856-1.89.079-.145Zm.365 2.809c-.105.233-.294.42-.527.525l-1.14.515 1.14.513c.175.08.325.204.433.36l.094.165L17 9.177l.514-1.138.094-.165a1.05 1.05 0 0 1 .43-.36l1.138-.513-1.137-.515a1.052 1.052 0 0 1-.525-.525L17 4.82l-.513 1.14Z"/></svg>