<svg xmlns="http://www.w3.org/2000/svg" width="16" height="16" fill="none"><path fill="#1D1C1B" d="M3.033 1.905c-.56 0-1.015.455-1.015 1.016v1.355c0 .56.454 1.015 1.015 1.015h5.825c.56 0 1.015-.454 1.015-1.015V2.92c0-.56-.454-1.016-1.015-1.016H3.033Z"/><path fill="#1D1C1B" fill-rule="evenodd" d="M10.822 2.921c0-.56.454-1.016 1.015-1.016h1.355c.56 0 1.016.455 1.016 1.016v1.355c0 .56-.455 1.015-1.016 1.015h-1.355a1.016 1.016 0 0 1-1.015-1.015V2.92Zm1.015-.338h1.355c.187 0 .338.151.338.338v1.355a.339.339 0 0 1-.338.338h-1.355a.339.339 0 0 1-.338-.338V2.92c0-.187.151-.338.338-.338Zm0 8.127c-.56 0-1.015.454-1.015 1.015v1.355c0 .56.454 1.015 1.015 1.015h1.355c.56 0 1.016-.454 1.016-1.015v-1.355c0-.56-.455-1.016-1.016-1.016h-1.355Zm1.355.676h-1.355a.339.339 0 0 0-.338.34v1.354c0 .187.151.338.338.338h1.355a.339.339 0 0 0 .338-.338v-1.355a.339.339 0 0 0-.338-.338ZM2.018 7.323c0-.56.454-1.016 1.015-1.016h2.71c.56 0 1.015.455 1.015 1.016v1.355c0 .56-.455 1.015-1.016 1.015H3.033a1.016 1.016 0 0 1-1.015-1.015V7.323Zm1.015-.338h2.71c.186 0 .338.151.338.338v1.355a.339.339 0 0 1-.339.338H3.033a.339.339 0 0 1-.338-.338V7.323c0-.187.151-.338.338-.338Z" clip-rule="evenodd"/><path fill="#1D1C1B" d="M7.842 7.323c0-.56.455-1.016 1.016-1.016h4.334c.561 0 1.016.455 1.016 1.016v1.355c0 .56-.455 1.015-1.016 1.015H8.858a1.016 1.016 0 0 1-1.016-1.015V7.323ZM3.033 10.71c-.56 0-1.015.454-1.015 1.015v1.355c0 .56.454 1.015 1.015 1.015h5.825c.56 0 1.015-.454 1.015-1.015v-1.355c0-.56-.454-1.016-1.015-1.016H3.033Z"/></svg>