<svg xmlns="http://www.w3.org/2000/svg" width="16" height="16" fill="none"><path fill="#F2F1F1" d="m5.384 10.82-2.5 3-.768-.64 2.5-3 .768.64Z"/><path fill="#F2F1F1" d="M8 2c.561 0 1.1.094 1.604.264l-1.457.972a.8.8 0 0 0 .086 1.38l1.577.79a.802.802 0 0 1 .308.271l1.164 1.746a.8.8 0 0 0 1.36-.047l.351-.615A5 5 0 1 1 8 2.001Zm3.587-.826a.2.2 0 0 1 .365 0l.72 1.594a.2.2 0 0 0 .1.1l1.594.72a.2.2 0 0 1 0 .364l-1.595.72a.2.2 0 0 0-.1.1l-.719 1.594a.2.2 0 0 1-.365 0l-.72-1.593a.2.2 0 0 0-.1-.1l-1.594-.72a.2.2 0 0 1 0-.365l1.595-.72a.2.2 0 0 0 .1-.1l.719-1.594Z"/></svg>