<svg xmlns="http://www.w3.org/2000/svg" width="16" height="16" fill="none"><path fill="#1D1C1B" fill-rule="evenodd" d="M3.033 1.905c-.56 0-1.015.455-1.015 1.016v1.355c0 .56.454 1.015 1.015 1.015h1.355c.561 0 1.016-.454 1.016-1.015V2.92c0-.56-.455-1.016-1.016-1.016H3.033Zm1.355.678H3.033a.339.339 0 0 0-.338.338v1.355c0 .187.151.338.338.338h1.355a.339.339 0 0 0 .339-.338V2.92a.339.339 0 0 0-.34-.338Zm7.45-.678c-.561 0-1.016.455-1.016 1.016v1.355c0 .56.455 1.015 1.016 1.015h1.354c.561 0 1.016-.454 1.016-1.015V2.92c0-.56-.455-1.016-1.016-1.016h-1.354Zm1.354.678h-1.354a.339.339 0 0 0-.339.338v1.355c0 .187.152.338.339.338h1.354a.339.339 0 0 0 .339-.338V2.92a.339.339 0 0 0-.339-.338Zm-2.37 9.142c0-.56.455-1.016 1.016-1.016h1.354c.561 0 1.016.455 1.016 1.016v1.355c0 .56-.455 1.016-1.016 1.016h-1.354a1.016 1.016 0 0 1-1.016-1.016v-1.355Zm1.016-.338h1.354c.187 0 .339.151.339.338v1.355a.339.339 0 0 1-.339.338h-1.354a.339.339 0 0 1-.339-.338v-1.355c0-.187.152-.338.339-.338Zm-8.805-.677c-.56 0-1.015.454-1.015 1.015v1.355c0 .56.454 1.016 1.015 1.016h1.355c.561 0 1.016-.455 1.016-1.016v-1.355c0-.56-.455-1.016-1.016-1.016H3.033Zm1.355.677H3.033a.339.339 0 0 0-.338.338v1.355c0 .187.151.338.338.338h1.355a.339.339 0 0 0 .339-.338v-1.355a.339.339 0 0 0-.34-.338Z" clip-rule="evenodd"/><path fill="#1D1C1B" d="M7.165 5.63c-.786 0-1.423.637-1.423 1.422V8.95c0 .785.637 1.422 1.423 1.422H9.06c.785 0 1.422-.637 1.422-1.422V7.052c0-.785-.637-1.422-1.422-1.422H7.165Z"/></svg>